# xmcd
#
# Track frame offsets: 
#        150
#        13750
#        37085
#        64500
#        78825
#        97035
#        115610
#        124945
#
# Disc length: 1899 seconds
#
# Revision: 0
# Processed by: cddbd v1.4PL0 Copyright (c) Steve Scherf et al.
# Submitted via: ExactAudioCopy v0.90b3
#
DISCID=60076908
DTITLE=Bobby Bare, Jr's Young Criminals' Starvation League - "OK - I'm
DTITLE=Sorry..." EP
DYEAR=2003
DGENRE=Alternative
TTITLE0=I'd Like To Teach The World To Sing
TTITLE1=Flat Chested Girl From Maynardville
TTITLE2=I'll Be Around
TTITLE3=Pinky
TTITLE4=Valentine
TTITLE5=Mother Ucker
TTITLE6=True Story
TTITLE7=I'll Be Around (Demo)
EXTD=
EXTT0=
EXTT1=
EXTT2=
EXTT3=
EXTT4=
EXTT5=
EXTT6=
EXTT7=
PLAYORDER=
